<svg id='Pokeball_24' width='24' height='24' viewBox='0 0 24 24' xmlns='http://www.w3.org/2000/svg' xmlns:xlink='http://www.w3.org/1999/xlink'><rect width='24' height='24' stroke='none' fill='#000000' opacity='0'/>


<g transform="matrix(0.2 0 0 0.2 12 12)" >
<g style="" >
<g transform="matrix(1 0 0 1 0 0)" >
<circle style="stroke: none; stroke-width: 1; stroke-dasharray: none; stroke-linecap: butt; stroke-dashoffset: 0; stroke-linejoin: miter; stroke-miterlimit: 4; fill: rgb(227,226,227); fill-rule: nonzero; opacity: 1;" cx="0" cy="0" r="35" />
</g>
<g transform="matrix(1 0 0 1 0 -17.5)" >
<path style="stroke: none; stroke-width: 1; stroke-dasharray: none; stroke-linecap: butt; stroke-dashoffset: 0; stroke-linejoin: miter; stroke-miterlimit: 4; fill: rgb(241,91,108); fill-rule: nonzero; opacity: 1;" transform=" translate(-50, -32.5)" d="M 50 15 C 30.67 15 15 30.67 15 50 L 85 50 C 85 30.67 69.33 15 50 15 z" stroke-linecap="round" />
</g>
<g transform="matrix(1 0 0 1 0 0)" >
<path style="stroke: none; stroke-width: 1; stroke-dasharray: none; stroke-linecap: butt; stroke-dashoffset: 0; stroke-linejoin: miter; stroke-miterlimit: 4; fill: rgb(31,33,43); fill-rule: nonzero; opacity: 1;" transform=" translate(-50, -50)" d="M 50 86 C 30.149 86 14 69.851 14 50 C 14 30.149 30.149 14 50 14 C 69.851 14 86 30.149 86 50 C 86 69.851 69.851 86 50 86 z M 50 16 C 31.252 16 16 31.252000000000002 16 50 C 16 68.74799999999999 31.252000000000002 84 50 84 C 68.74799999999999 84 84 68.748 84 50 C 84 31.251999999999995 68.748 16 50 16 z" stroke-linecap="round" />
</g>
<g transform="matrix(1 0 0 1 0 0)" >
<circle style="stroke: none; stroke-width: 1; stroke-dasharray: none; stroke-linecap: butt; stroke-dashoffset: 0; stroke-linejoin: miter; stroke-miterlimit: 4; fill: rgb(255,255,255); fill-rule: nonzero; opacity: 1;" cx="0" cy="0" r="10" />
</g>
<g transform="matrix(1 0 0 1 0 0)" >
<path style="stroke: none; stroke-width: 1; stroke-dasharray: none; stroke-linecap: butt; stroke-dashoffset: 0; stroke-linejoin: miter; stroke-miterlimit: 4; fill: rgb(31,33,43); fill-rule: nonzero; opacity: 1;" transform=" translate(-50, -50)" d="M 50 61 C 43.935 61 39 56.065 39 50 C 39 43.935 43.935 39 50 39 C 56.065 39 61 43.935 61 50 C 61 56.065 56.065 61 50 61 z M 50 41 C 45.038 41 41 45.037 41 50 C 41 54.963 45.038 59 50 59 C 54.962 59 59 54.963 59 50 C 59 45.037 54.962 41 50 41 z" stroke-linecap="round" />
</g>
<g transform="matrix(1 0 0 1 0 0)" >
<circle style="stroke: none; stroke-width: 1; stroke-dasharray: none; stroke-linecap: butt; stroke-dashoffset: 0; stroke-linejoin: miter; stroke-miterlimit: 4; fill: rgb(68,68,69); fill-rule: nonzero; opacity: 1;" cx="0" cy="0" r="4.5" />
</g>
<g transform="matrix(1 0 0 1 0 0)" >
<path style="stroke: none; stroke-width: 1; stroke-dasharray: none; stroke-linecap: butt; stroke-dashoffset: 0; stroke-linejoin: miter; stroke-miterlimit: 4; fill: rgb(31,33,43); fill-rule: nonzero; opacity: 1;" transform=" translate(-50, -50)" d="M 50 55 C 47.243 55 45 52.757 45 50 C 45 47.243 47.243 45 50 45 C 52.757 45 55 47.243 55 50 C 55 52.757 52.757 55 50 55 z M 50 46 C 47.794 46 46 47.794 46 50 C 46 52.206 47.794 54 50 54 C 52.206 54 54 52.206 54 50 C 54 47.794 52.206 46 50 46 z" stroke-linecap="round" />
</g>
<g transform="matrix(1 0 0 1 -22.5 0)" >
<rect style="stroke: none; stroke-width: 1; stroke-dasharray: none; stroke-linecap: butt; stroke-dashoffset: 0; stroke-linejoin: miter; stroke-miterlimit: 4; fill: rgb(31,33,43); fill-rule: nonzero; opacity: 1;" x="-12.5" y="-1" rx="0" ry="0" width="25" height="2" />
</g>
<g transform="matrix(1 0 0 1 22.5 0)" >
<rect style="stroke: none; stroke-width: 1; stroke-dasharray: none; stroke-linecap: butt; stroke-dashoffset: 0; stroke-linejoin: miter; stroke-miterlimit: 4; fill: rgb(31,33,43); fill-rule: nonzero; opacity: 1;" x="-12.5" y="-1" rx="0" ry="0" width="25" height="2" />
</g>
<g transform="matrix(1 0 0 1 -3.74 24)" >
<path style="stroke: none; stroke-width: 1; stroke-dasharray: none; stroke-linecap: butt; stroke-dashoffset: 0; stroke-linejoin: miter; stroke-miterlimit: 4; fill: rgb(31,33,43); fill-rule: nonzero; opacity: 1;" transform=" translate(-46.26, -74)" d="M 50 81 C 39.915 81 30.426 76.061 24.618 67.787 C 24.459 67.561 24.514 67.24900000000001 24.74 67.09100000000001 C 24.965999999999998 66.932 25.278 66.98700000000001 25.436 67.21300000000001 C 31.058 75.22 40.24 80 50 80 C 56.198 80 62.15 78.12 67.212 74.562 C 67.438 74.40299999999999 67.75 74.458 67.909 74.684 C 68.06800000000001 74.91 68.013 75.221 67.787 75.38 C 62.556 79.057 56.405 81 50 81 z" stroke-linecap="round" />
</g>
<g transform="matrix(1 0 0 1 24.6 18)" >
<path style="stroke: none; stroke-width: 1; stroke-dasharray: none; stroke-linecap: butt; stroke-dashoffset: 0; stroke-linejoin: miter; stroke-miterlimit: 4; fill: rgb(31,33,43); fill-rule: nonzero; opacity: 1;" transform=" translate(-74.6, -68)" d="M 74.226 69 C 74.12 69 74.014 68.967 73.923 68.897 C 73.70400000000001 68.729 73.662 68.41600000000001 73.83 68.19600000000001 L 73.917 68.08200000000001 C 74.137 67.796 74.356 67.50900000000001 74.56400000000001 67.21300000000001 C 74.72300000000001 66.98700000000001 75.034 66.932 75.26 67.09100000000001 C 75.486 67.24900000000001 75.54100000000001 67.56200000000001 75.382 67.787 C 75.16600000000001 68.09500000000001 74.938 68.39200000000001 74.71000000000001 68.69000000000001 L 74.623 68.80300000000001 C 74.525 68.933 74.376 69 74.226 69 z" stroke-linecap="round" />
</g>
<g transform="matrix(1 0 0 1 21.56 21.5)" >
<path style="stroke: none; stroke-width: 1; stroke-dasharray: none; stroke-linecap: butt; stroke-dashoffset: 0; stroke-linejoin: miter; stroke-miterlimit: 4; fill: rgb(31,33,43); fill-rule: nonzero; opacity: 1;" transform=" translate(-71.56, -71.5)" d="M 70.565 73 C 70.42999999999999 73 70.295 72.945 70.196 72.838 C 70.009 72.634 70.023 72.317 70.227 72.131 C 70.932 71.485 71.59400000000001 70.824 72.193 70.164 C 72.38 69.961 72.695 69.94500000000001 72.89999999999999 70.13 C 73.10399999999998 70.316 73.11899999999999 70.63199999999999 72.934 70.836 C 72.314 71.519 71.63 72.203 70.902 72.869 C 70.807 72.957 70.686 73 70.565 73 z" stroke-linecap="round" />
</g>
</g>
</g>
</svg>